<mxfile host="app.diagrams.net" modified="2024-05-24T09:18:03.781Z" agent="Mozilla/5.0 (Windows NT 10.0; Win64; x64) AppleWebKit/537.36 (KHTML, like Gecko) Chrome/125.0.0.0 Safari/537.36 Edg/125.0.0.0" etag="AvxKL5XT3TDcCzCiCHWR" version="24.4.7" type="device">
  <diagram name="ページ1" id="RirOl68ti4e6tjiITRan">
    <mxGraphModel dx="620" dy="2042" grid="1" gridSize="10" guides="1" tooltips="1" connect="1" arrows="1" fold="1" page="1" pageScale="1" pageWidth="827" pageHeight="1169" math="0" shadow="0">
      <root>
        <mxCell id="0" />
        <mxCell id="1" parent="0" />
        <mxCell id="X04ja4Iz7v7s3jGndWg7-4" style="edgeStyle=orthogonalEdgeStyle;rounded=0;orthogonalLoop=1;jettySize=auto;html=1;exitX=0.5;exitY=1;exitDx=0;exitDy=0;entryX=0.5;entryY=0;entryDx=0;entryDy=0;" edge="1" parent="1" source="X04ja4Iz7v7s3jGndWg7-1" target="X04ja4Iz7v7s3jGndWg7-2">
          <mxGeometry relative="1" as="geometry" />
        </mxCell>
        <mxCell id="X04ja4Iz7v7s3jGndWg7-1" value="&lt;div&gt;&lt;font style=&quot;font-size: 12px;&quot;&gt;def&amp;nbsp;&lt;/font&gt;&lt;span style=&quot;font-family: 游明朝, serif; background-color: initial;&quot;&gt;&lt;font style=&quot;font-size: 12px;&quot;&gt;csvreader(self,&lt;/font&gt;&lt;/span&gt;&lt;/div&gt;&lt;div&gt;&lt;span style=&quot;font-family: 游明朝, serif; background-color: initial;&quot;&gt;&lt;font style=&quot;font-size: 12px;&quot;&gt;filename)&lt;/font&gt;&lt;/span&gt;&lt;span style=&quot;background-color: initial;&quot;&gt;関数&lt;/span&gt;&lt;/div&gt;&lt;font style=&quot;font-size: 12px;&quot;&gt;開始&lt;/font&gt;" style="rounded=0;whiteSpace=wrap;html=1;" vertex="1" parent="1">
          <mxGeometry x="70" y="-1160" width="120" height="60" as="geometry" />
        </mxCell>
        <mxCell id="X04ja4Iz7v7s3jGndWg7-26" style="edgeStyle=orthogonalEdgeStyle;rounded=0;orthogonalLoop=1;jettySize=auto;html=1;exitX=0.5;exitY=1;exitDx=0;exitDy=0;entryX=0.5;entryY=0;entryDx=0;entryDy=0;" edge="1" parent="1" source="X04ja4Iz7v7s3jGndWg7-2" target="X04ja4Iz7v7s3jGndWg7-7">
          <mxGeometry relative="1" as="geometry" />
        </mxCell>
        <mxCell id="X04ja4Iz7v7s3jGndWg7-2" value="f = open(filename,&quot;r&quot;)" style="rounded=1;whiteSpace=wrap;html=1;" vertex="1" parent="1">
          <mxGeometry x="70" y="-1070" width="120" height="60" as="geometry" />
        </mxCell>
        <mxCell id="X04ja4Iz7v7s3jGndWg7-27" style="edgeStyle=orthogonalEdgeStyle;rounded=0;orthogonalLoop=1;jettySize=auto;html=1;exitX=0.5;exitY=1;exitDx=0;exitDy=0;entryX=0.5;entryY=0;entryDx=0;entryDy=0;" edge="1" parent="1" source="X04ja4Iz7v7s3jGndWg7-7" target="X04ja4Iz7v7s3jGndWg7-8">
          <mxGeometry relative="1" as="geometry" />
        </mxCell>
        <mxCell id="X04ja4Iz7v7s3jGndWg7-7" value="csvr = csv.reader(f)" style="rounded=1;whiteSpace=wrap;html=1;" vertex="1" parent="1">
          <mxGeometry x="70" y="-980" width="120" height="60" as="geometry" />
        </mxCell>
        <mxCell id="X04ja4Iz7v7s3jGndWg7-28" style="edgeStyle=orthogonalEdgeStyle;rounded=0;orthogonalLoop=1;jettySize=auto;html=1;exitX=0.5;exitY=1;exitDx=0;exitDy=0;entryX=0.5;entryY=0;entryDx=0;entryDy=0;" edge="1" parent="1" source="X04ja4Iz7v7s3jGndWg7-8" target="X04ja4Iz7v7s3jGndWg7-10">
          <mxGeometry relative="1" as="geometry" />
        </mxCell>
        <mxCell id="X04ja4Iz7v7s3jGndWg7-8" value="next(csvr)" style="rounded=1;whiteSpace=wrap;html=1;" vertex="1" parent="1">
          <mxGeometry x="70" y="-890" width="120" height="60" as="geometry" />
        </mxCell>
        <mxCell id="X04ja4Iz7v7s3jGndWg7-17" style="edgeStyle=orthogonalEdgeStyle;rounded=0;orthogonalLoop=1;jettySize=auto;html=1;exitX=0.5;exitY=1;exitDx=0;exitDy=0;entryX=0.5;entryY=0;entryDx=0;entryDy=0;" edge="1" parent="1" source="X04ja4Iz7v7s3jGndWg7-10" target="X04ja4Iz7v7s3jGndWg7-11">
          <mxGeometry relative="1" as="geometry" />
        </mxCell>
        <mxCell id="X04ja4Iz7v7s3jGndWg7-24" style="edgeStyle=orthogonalEdgeStyle;rounded=0;orthogonalLoop=1;jettySize=auto;html=1;exitX=1;exitY=0.5;exitDx=0;exitDy=0;entryX=1;entryY=0.5;entryDx=0;entryDy=0;" edge="1" parent="1" source="X04ja4Iz7v7s3jGndWg7-10" target="X04ja4Iz7v7s3jGndWg7-21">
          <mxGeometry relative="1" as="geometry" />
        </mxCell>
        <mxCell id="X04ja4Iz7v7s3jGndWg7-10" value="row in csvr" style="rhombus;whiteSpace=wrap;html=1;" vertex="1" parent="1">
          <mxGeometry x="67.5" y="-810" width="125" height="80" as="geometry" />
        </mxCell>
        <mxCell id="X04ja4Iz7v7s3jGndWg7-18" style="edgeStyle=orthogonalEdgeStyle;rounded=0;orthogonalLoop=1;jettySize=auto;html=1;exitX=0.5;exitY=1;exitDx=0;exitDy=0;entryX=0.5;entryY=0;entryDx=0;entryDy=0;" edge="1" parent="1" source="X04ja4Iz7v7s3jGndWg7-11" target="X04ja4Iz7v7s3jGndWg7-13">
          <mxGeometry relative="1" as="geometry" />
        </mxCell>
        <mxCell id="X04ja4Iz7v7s3jGndWg7-11" value="number = int(row[0])" style="rounded=1;whiteSpace=wrap;html=1;" vertex="1" parent="1">
          <mxGeometry x="72.5" y="-710" width="120" height="60" as="geometry" />
        </mxCell>
        <mxCell id="X04ja4Iz7v7s3jGndWg7-15" style="edgeStyle=orthogonalEdgeStyle;rounded=0;orthogonalLoop=1;jettySize=auto;html=1;exitX=0.5;exitY=1;exitDx=0;exitDy=0;" edge="1" parent="1" source="X04ja4Iz7v7s3jGndWg7-13">
          <mxGeometry relative="1" as="geometry">
            <mxPoint x="132.47826086956525" y="-569.9130434782608" as="targetPoint" />
          </mxGeometry>
        </mxCell>
        <mxCell id="X04ja4Iz7v7s3jGndWg7-19" style="edgeStyle=orthogonalEdgeStyle;rounded=0;orthogonalLoop=1;jettySize=auto;html=1;exitX=0.5;exitY=1;exitDx=0;exitDy=0;entryX=0.5;entryY=0;entryDx=0;entryDy=0;" edge="1" parent="1" source="X04ja4Iz7v7s3jGndWg7-13" target="X04ja4Iz7v7s3jGndWg7-14">
          <mxGeometry relative="1" as="geometry" />
        </mxCell>
        <mxCell id="X04ja4Iz7v7s3jGndWg7-13" value="name = str(row[1])" style="rounded=1;whiteSpace=wrap;html=1;" vertex="1" parent="1">
          <mxGeometry x="72.5" y="-614" width="120" height="60" as="geometry" />
        </mxCell>
        <mxCell id="X04ja4Iz7v7s3jGndWg7-20" style="edgeStyle=orthogonalEdgeStyle;rounded=0;orthogonalLoop=1;jettySize=auto;html=1;exitX=0.5;exitY=1;exitDx=0;exitDy=0;entryX=0.5;entryY=0;entryDx=0;entryDy=0;" edge="1" parent="1" source="X04ja4Iz7v7s3jGndWg7-14" target="X04ja4Iz7v7s3jGndWg7-16">
          <mxGeometry relative="1" as="geometry" />
        </mxCell>
        <mxCell id="X04ja4Iz7v7s3jGndWg7-14" value="score = int(row[2])" style="rounded=1;whiteSpace=wrap;html=1;" vertex="1" parent="1">
          <mxGeometry x="72.5" y="-520" width="120" height="60" as="geometry" />
        </mxCell>
        <mxCell id="X04ja4Iz7v7s3jGndWg7-22" style="edgeStyle=orthogonalEdgeStyle;rounded=0;orthogonalLoop=1;jettySize=auto;html=1;exitX=0.5;exitY=1;exitDx=0;exitDy=0;entryX=0.5;entryY=0;entryDx=0;entryDy=0;" edge="1" parent="1" source="X04ja4Iz7v7s3jGndWg7-16" target="X04ja4Iz7v7s3jGndWg7-21">
          <mxGeometry relative="1" as="geometry" />
        </mxCell>
        <mxCell id="X04ja4Iz7v7s3jGndWg7-16" value="aditem(number,name,&lt;div&gt;score)&lt;/div&gt;" style="rounded=1;whiteSpace=wrap;html=1;" vertex="1" parent="1">
          <mxGeometry x="72.5" y="-430" width="120" height="60" as="geometry" />
        </mxCell>
        <mxCell id="X04ja4Iz7v7s3jGndWg7-21" value="終了" style="rounded=0;whiteSpace=wrap;html=1;" vertex="1" parent="1">
          <mxGeometry x="70" y="-340" width="120" height="60" as="geometry" />
        </mxCell>
        <mxCell id="X04ja4Iz7v7s3jGndWg7-23" value="True" style="text;html=1;align=center;verticalAlign=middle;resizable=0;points=[];autosize=1;strokeColor=none;fillColor=none;" vertex="1" parent="1">
          <mxGeometry x="140" y="-740" width="50" height="30" as="geometry" />
        </mxCell>
        <mxCell id="X04ja4Iz7v7s3jGndWg7-25" value="False" style="text;html=1;align=center;verticalAlign=middle;resizable=0;points=[];autosize=1;strokeColor=none;fillColor=none;" vertex="1" parent="1">
          <mxGeometry x="185" y="-802" width="50" height="30" as="geometry" />
        </mxCell>
      </root>
    </mxGraphModel>
  </diagram>
</mxfile>
